<svg width="256" height="256" viewBox="0 0 256 256" fill="none" xmlns="http://www.w3.org/2000/svg">
  <defs>
    <linearGradient id="bg-gradient" x1="0%" y1="0%" x2="100%" y2="100%">
      <stop offset="0%" style="stop-color:#6366f1"/>
      <stop offset="100%" style="stop-color:#a855f7"/>
    </linearGradient>
    <linearGradient id="shine" x1="0%" y1="0%" x2="100%" y2="100%">
      <stop offset="0%" style="stop-color:#ffffff;stop-opacity:0.3"/>
      <stop offset="100%" style="stop-color:#ffffff;stop-opacity:0"/>
    </linearGradient>
  </defs>
  
  <!-- Background Circle -->
  <rect width="256" height="256" rx="56" fill="url(#bg-gradient)"/>
  
  <!-- Shine Effect -->
  <rect width="256" height="256" rx="56" fill="url(#shine)"/>
  
  <!-- Sparkle Icon -->
  <g transform="translate(60, 60)">
    <path 
      d="M68 16L76.144 46.856C77.2 50.8 80.2 54 84.144 55.056L115 63.2L84.144 71.344C80.2 72.4 77 75.4 75.944 79.344L68 110.2L59.856 79.344C58.8 75.4 55.8 72.2 51.856 71.144L21 63L51.856 54.856C55.8 53.8 59 50.8 60.056 46.856L68 16Z" 
      fill="white"
      stroke="white"
      stroke-width="4"
      stroke-linecap="round"
      stroke-linejoin="round"
    />
    
    <!-- Small sparkles -->
    <circle cx="115" cy="25" r="8" fill="white" opacity="0.7"/>
    <circle cx="25" cy="100" r="6" fill="white" opacity="0.5"/>
    <circle cx="120" cy="110" r="5" fill="white" opacity="0.6"/>
  </g>
</svg>
